<svg xmlns="http://www.w3.org/2000/svg" xmlns:xlink="http://www.w3.org/1999/xlink" width="275" height="38" viewBox="0 0 275 38">
    <defs>
        <path id="7anr7no4ua" d="M0.162 0.435L13.254 0.435 13.254 23.152 0.162 23.152z"/>
    </defs>
    <g fill="none" fill-rule="evenodd">
        <g>
            <g>
                <g transform="translate(-121.000000, -1049.000000) translate(121.000000, 1049.000000) translate(205.600000, 14.400000)">
                    <mask id="jm1v3e5fbb" fill="#fff">
                        <use xlink:href="#7anr7no4ua"/>
                    </mask>
                    <path fill="#AB312E" d="M10.469 5.744c0-2.652-1.799-4.042-3.887-4.042-2.436 0-4.015 1.766-4.015 4.042 0 2.217 1.358 4.053 4.015 4.053 2.372 0 3.887-1.804 3.887-4.053zM6.77 21.901c2.845 0 5.03-1.675 5.03-3.822 0-1.455-.886-2.786-3.226-2.786H4.59c-.316.033-2.56.918-2.56 3.071 0 1.74 1.675 3.537 4.74 3.537zM2.25 8.938c-.348-.44-.982-1.643-.982-3.162 0-3.033 2.12-5.34 5.534-5.34h5.185c.253 0 .414.192.414.407v.349c0 .16-.096.354-.284.38l-2.276.162c.6.312 1.959 1.416 1.959 4.042 0 2.818-2.024 5.25-5.25 5.25-1.895 0-3.038-.692-3.446-1.139-.253.097-1.61.79-1.61 2.277 0 1.486 1.26 1.83 2.496 1.83h4.584c2.716 0 4.68 1.235 4.68 4.053 0 2.684-2.592 5.153-6.452 5.153-4.3 0-6.168-2.528-6.168-4.68 0-1.863 1.332-2.91 1.997-3.323-.633-.123-2.469-.978-2.469-2.872 0-2.12 1.74-3.194 2.088-3.387z" mask="url(#jm1v3e5fbb)"/>
                </g>
                <path fill="#AB312E" d="M221.667 15.56c0-.22.188-.409.408-.409h.381c.189 0 .35.124.382.35l.117 1.293c.323-.44 1.59-1.959 3.957-1.959 1.014 0 1.712.284 1.965.381.284.097.44.317.342.569l-.251.633c-.091.22-.285.253-.505.156-.156-.064-.789-.381-1.643-.381-2.47 0-3.666 1.991-3.762 2.185v9.012c0 .248-.13.408-.413.408h-.628c-.227 0-.35-.192-.35-.408V15.56M237.218 26.816c2.786 0 4.965-2.367 4.965-5.373 0-2.91-2.179-5.282-4.965-5.282-2.812 0-4.992 2.373-4.992 5.282 0 3.006 2.18 5.373 4.992 5.373zm0-11.98c3.543 0 6.356 3 6.356 6.607 0 3.699-2.813 6.672-6.356 6.672-3.57 0-6.35-2.973-6.35-6.672 0-3.607 2.78-6.608 6.35-6.608zM247.24 15.56c0-.22.187-.409.413-.409h.569c.22 0 .408.189.408.408v6.802c0 2.941 1.364 4.428 3.763 4.428 2.625 0 4.08-2.055 4.177-2.216v-9.014c0-.246.155-.408.408-.408h.568c.22 0 .413.189.413.408V27.39c0 .216-.193.408-.413.408h-.376c-.257 0-.348-.192-.381-.381l-.123-1.229c-.35.44-1.868 1.927-4.364 1.927-3.544 0-5.062-2.185-5.062-5.754v-6.802M267.729 26.789c3.065 0 5.153-2.34 5.153-5.346 0-2.937-1.932-5.309-4.81-5.309-2.463 0-3.826 1.61-3.918 1.772v7.396c.064.124 1.423 1.487 3.575 1.487zm-3.607 10.081c0 .22-.188.413-.413.413h-.537c-.22 0-.408-.193-.408-.413V15.56c0-.247.22-.409.446-.409h.343c.22 0 .349.092.381.318l.096.885c.382-.316 1.83-1.519 4.14-1.519 3.51 0 6.103 2.942 6.103 6.64 0 3.73-2.657 6.64-6.388 6.64-2.088 0-3.414-.982-3.763-1.299V36.87zM1.866 16.414H.382c-.323 0-.382-.156-.382-.408V15.5c0-.226.158-.323.382-.323h1.484v-3.44c0-.258.19-.414.412-.414l.535-.032c.22 0 .413.188.413.414v3.472h4.39c.256 0 .414.194.414.414v.414c0 .252-.158.408-.413.408h-4.39v8.062c0 1.486.155 2.307 1.642 2.307 1.109 0 2.466-.6 2.877-.853.284-.155.413-.026.507.13l.22.375c.129.225.094.414-.096.543-.47.375-1.86 1.164-3.664 1.164-2.625 0-2.847-1.552-2.847-3.57v-8.158M11.729 6.107c0-.22.19-.409.443-.409h.507c.223 0 .41.188.41.41V16.89c.414-.412 2.086-2.023 4.585-2.023 3.29 0 5.09 2.023 5.09 5.782v6.768c0 .22-.192.408-.413.408h-.568c-.22 0-.408-.187-.408-.408v-6.768c0-2.91-1.36-4.424-3.763-4.424-2.625 0-4.396 2.057-4.522 2.212v8.98c0 .253-.127.408-.41.408h-.602c-.22 0-.35-.187-.35-.408V6.107M37.02 20.746c0-2.464-1.485-4.617-4.33-4.617-2.783 0-4.645 2.023-4.81 4.617h9.14zm-4.33-5.879c3.32 0 5.723 2.431 5.723 5.782 0 .51 0 1.233-.475 1.233H27.852c.129 2.717 2.088 4.999 4.932 4.999 1.678 0 2.974-.666 3.734-1.176.284-.188.408-.215.566 0l.32.446c.094.129.06.316-.134.509-.628.628-2.62 1.482-4.58 1.482-3.856 0-6.23-2.968-6.23-6.667 0-3.607 2.374-6.608 6.23-6.608zM44.352.76L53.37.76 53.37 16.472 59.109 9.639 69.31 9.639 60.885 18.566 70.63 33.279 59.79 33.279 54.965 24.712 53.37 26.446 53.37 33.279 44.352 33.279 44.352.76" transform="translate(-121.000000, -1049.000000) translate(121.000000, 1049.000000)"/>
                <path fill="#AB312E" d="M81.15 15.608c-3.417 0-3.87 3.322-3.87 5.83 0 2.501.453 5.872 3.87 5.872 3.416 0 3.872-3.37 3.872-5.872 0-2.508-.456-5.83-3.872-5.83zm0 18.262c-8.882 0-12.89-5.879-12.89-12.432 0-6.56 4.008-12.39 12.89-12.39 8.88 0 12.89 5.83 12.89 12.39 0 6.553-4.01 12.432-12.89 12.432zM95.216.76h9.02v11.434h.094c1.541-1.825 3.552-3.145 7.376-3.145 4.236 0 8.108 2.597 8.108 8.013V33.28h-9.021V20.89c0-2.731-.313-4.642-2.957-4.642-1.55 0-3.6.772-3.6 4.551V33.28h-9.02V.76M121.996 9.64h8.698v3.005h.095c1.685-2.367 4.095-3.596 7.697-3.596 4.23 0 8.1 2.597 8.1 8.013V33.28h-9.015V20.89c0-2.731-.32-4.642-2.96-4.642-1.544 0-3.594.772-3.594 4.551V33.28h-9.021V9.64M165.036 18.796c0-2.19-1.643-3.966-3.967-3.966-2.684 0-4.235 1.417-4.649 3.966h8.616zm-8.653 4.692c.226 2.684 1.77 4.6 4.595 4.6 1.455 0 3.054-.547 3.784-1.685h8.422c-1.82 5.1-6.785 7.467-12.158 7.467-7.564 0-13.253-4.461-13.253-12.341 0-6.877 5.009-12.48 12.48-12.48 9.383 0 13.436 5.238 13.436 14.439h-17.306zM174.73 9.64h8.702v3.005h.09c1.687-2.367 4.096-3.596 7.698-3.596 4.235 0 8.106 2.597 8.106 8.013V33.28h-9.018V20.89c0-2.731-.322-4.642-2.963-4.642-1.546 0-3.596.772-3.596 4.551V33.28h-9.019V9.64" transform="translate(-121.000000, -1049.000000) translate(121.000000, 1049.000000)"/>
            </g>
        </g>
    </g>
</svg>
