<svg xmlns="http://www.w3.org/2000/svg" width="1440" height="387" viewBox="0 0 1440 387">
    <g fill="none" fill-rule="evenodd" opacity=".2">
        <g fill="#AB312E">
            <g>
                <path d="M518 0L623.358 0 623.358 183.601 690.398 103.757 809.579 103.757 711.146 208.066 825 380 698.361 380 641.985 279.889 623.358 300.147 623.358 380 518 380 518 0" transform="translate(0.000000, -972.000000) translate(-551.000000, 972.000000)"/>
                <path d="M947.49 173.636c-39.894 0-45.19 38.818-45.19 68.112 0 29.228 5.296 68.616 45.19 68.616 39.886 0 45.21-39.388 45.21-68.616 0-29.294-5.324-68.112-45.21-68.112zm0 213.364C843.789 387 797 318.318 797 241.748 797 165.112 843.788 97 947.49 97 1051.185 97 1098 165.112 1098 241.748 1098 318.318 1051.184 387 947.49 387zM1112 0h105.25v133.606h1.092c17.977-21.323 41.433-36.748 86.059-36.748 49.413 0 94.599 30.354 94.599 93.642V380h-105.259V235.223c0-31.925-3.65-54.249-34.498-54.249-18.08 0-41.993 9.021-41.993 53.183V380H1112V0M1425 103.896h101.521V139h1.102c19.673-27.648 47.796-42 89.84-42 49.374 0 94.537 30.339 94.537 93.595V380h-105.218V235.295c0-31.908-3.735-54.221-34.547-54.221-18.02 0-41.951 9.017-41.951 53.156V380H1425V103.896M1927.835 210.884c0-25.583-19.212-46.343-46.383-46.343-31.38 0-49.517 16.563-54.352 46.343h100.735zm-101.165 54.82c2.637 31.36 20.698 53.745 53.725 53.745 17.004 0 35.701-6.393 44.24-19.685h98.463c-21.27 59.578-79.325 87.236-142.151 87.236C1792.52 387 1726 334.881 1726 242.813 1726 162.466 1784.561 97 1871.911 97 1981.616 97 2029 158.204 2029 265.704h-202.33z" transform="translate(0.000000, -972.000000) translate(-551.000000, 972.000000)"/>
            </g>
        </g>
    </g>
</svg>
