<svg xmlns="http://www.w3.org/2000/svg" width="1369" height="597" viewBox="0 0 1369 597">
    <g fill="none" fill-rule="evenodd">
        <g stroke="#FFF">
            <g>
                <path d="M0.5 10L47 56.5" transform="translate(-38.000000, -3423.000000) translate(38.000000, 3413.000000)"/>
                <path d="M110.547 10.04L157.047 56.54" transform="translate(-38.000000, -3423.000000) translate(38.000000, 3413.000000) translate(133.797210, 33.289614) rotate(-10.000000) translate(-133.797210, -33.289614)"/>
                <path d="M220.601 10.07L267.101 56.57" transform="translate(-38.000000, -3423.000000) translate(38.000000, 3413.000000) translate(243.850582, 33.320428) rotate(-20.000000) translate(-243.850582, -33.320428)"/>
                <path d="M330.658 10.092L377.158 56.592" transform="translate(-38.000000, -3423.000000) translate(38.000000, 3413.000000) translate(353.908494, 33.341506) rotate(-30.000000) translate(-353.908494, -33.341506)"/>
                <path d="M440.719 10.102L487.219 56.602" transform="translate(-38.000000, -3423.000000) translate(38.000000, 3413.000000) translate(463.969186, 33.352208) rotate(-40.000000) translate(-463.969186, -33.352208)"/>
                <path d="M550.75 10.104L597.25 56.604" transform="translate(-38.000000, -3423.000000) translate(38.000000, 3413.000000) translate(574.000000, 33.353553) rotate(-45.000000) translate(-574.000000, -33.353553)"/>
                <path d="M0.5 120L47 166.5" transform="translate(-38.000000, -3423.000000) translate(38.000000, 3413.000000)"/>
                <path d="M110.547 120.04L157.047 166.54" transform="translate(-38.000000, -3423.000000) translate(38.000000, 3413.000000) translate(133.797210, 143.289614) rotate(-10.000000) translate(-133.797210, -143.289614)"/>
                <path d="M220.601 120.07L267.101 166.57" transform="translate(-38.000000, -3423.000000) translate(38.000000, 3413.000000) translate(243.850582, 143.320428) rotate(-20.000000) translate(-243.850582, -143.320428)"/>
                <path d="M330.658 120.092L377.158 166.592" transform="translate(-38.000000, -3423.000000) translate(38.000000, 3413.000000) translate(353.908494, 143.341506) rotate(-30.000000) translate(-353.908494, -143.341506)"/>
                <path d="M440.719 120.102L487.219 166.602" transform="translate(-38.000000, -3423.000000) translate(38.000000, 3413.000000) translate(463.969186, 143.352208) rotate(-40.000000) translate(-463.969186, -143.352208)"/>
                <path d="M550.75 120.104L597.25 166.604" transform="translate(-38.000000, -3423.000000) translate(38.000000, 3413.000000) translate(574.000000, 143.353553) rotate(-45.000000) translate(-574.000000, -143.353553)"/>
                <path d="M0.5 230L47 276.5" transform="translate(-38.000000, -3423.000000) translate(38.000000, 3413.000000)"/>
                <path d="M110.547 230.04L157.047 276.54" transform="translate(-38.000000, -3423.000000) translate(38.000000, 3413.000000) translate(133.797210, 253.289614) rotate(-10.000000) translate(-133.797210, -253.289614)"/>
                <path d="M220.601 230.07L267.101 276.57" transform="translate(-38.000000, -3423.000000) translate(38.000000, 3413.000000) translate(243.850582, 253.320428) rotate(-20.000000) translate(-243.850582, -253.320428)"/>
                <path d="M330.658 230.092L377.158 276.592" transform="translate(-38.000000, -3423.000000) translate(38.000000, 3413.000000) translate(353.908494, 253.341506) rotate(-30.000000) translate(-353.908494, -253.341506)"/>
                <path d="M440.719 230.102L487.219 276.602" transform="translate(-38.000000, -3423.000000) translate(38.000000, 3413.000000) translate(463.969186, 253.352208) rotate(-40.000000) translate(-463.969186, -253.352208)"/>
                <path d="M550.75 230.104L597.25 276.604" transform="translate(-38.000000, -3423.000000) translate(38.000000, 3413.000000) translate(574.000000, 253.353553) rotate(-45.000000) translate(-574.000000, -253.353553)"/>
                <path d="M0.5 340L47 386.5" transform="translate(-38.000000, -3423.000000) translate(38.000000, 3413.000000)"/>
                <path d="M110.547 340.04L157.047 386.54" transform="translate(-38.000000, -3423.000000) translate(38.000000, 3413.000000) translate(133.797210, 363.289614) rotate(-10.000000) translate(-133.797210, -363.289614)"/>
                <path d="M220.601 340.07L267.101 386.57" transform="translate(-38.000000, -3423.000000) translate(38.000000, 3413.000000) translate(243.850582, 363.320428) rotate(-20.000000) translate(-243.850582, -363.320428)"/>
                <path d="M330.658 340.092L377.158 386.592" transform="translate(-38.000000, -3423.000000) translate(38.000000, 3413.000000) translate(353.908494, 363.341506) rotate(-30.000000) translate(-353.908494, -363.341506)"/>
                <path d="M440.719 340.102L487.219 386.602" transform="translate(-38.000000, -3423.000000) translate(38.000000, 3413.000000) translate(463.969186, 363.352208) rotate(-40.000000) translate(-463.969186, -363.352208)"/>
                <path d="M550.75 340.104L597.25 386.604" transform="translate(-38.000000, -3423.000000) translate(38.000000, 3413.000000) translate(574.000000, 363.353553) rotate(-45.000000) translate(-574.000000, -363.353553)"/>
                <path d="M0.5 450L47 496.5" transform="translate(-38.000000, -3423.000000) translate(38.000000, 3413.000000)"/>
                <path d="M110.547 450.04L157.047 496.54" transform="translate(-38.000000, -3423.000000) translate(38.000000, 3413.000000) translate(133.797210, 473.289614) rotate(-10.000000) translate(-133.797210, -473.289614)"/>
                <path d="M220.601 450.07L267.101 496.57" transform="translate(-38.000000, -3423.000000) translate(38.000000, 3413.000000) translate(243.850582, 473.320428) rotate(-20.000000) translate(-243.850582, -473.320428)"/>
                <path d="M330.658 450.092L377.158 496.592" transform="translate(-38.000000, -3423.000000) translate(38.000000, 3413.000000) translate(353.908494, 473.341506) rotate(-30.000000) translate(-353.908494, -473.341506)"/>
                <path d="M440.719 450.102L487.219 496.602" transform="translate(-38.000000, -3423.000000) translate(38.000000, 3413.000000) translate(463.969186, 473.352208) rotate(-40.000000) translate(-463.969186, -473.352208)"/>
                <path d="M550.75 450.104L597.25 496.604" transform="translate(-38.000000, -3423.000000) translate(38.000000, 3413.000000) translate(574.000000, 473.353553) rotate(-45.000000) translate(-574.000000, -473.353553)"/>
                <path d="M0.5 560L47 606.5" transform="translate(-38.000000, -3423.000000) translate(38.000000, 3413.000000)"/>
                <path d="M110.547 560.04L157.047 606.54" transform="translate(-38.000000, -3423.000000) translate(38.000000, 3413.000000) translate(133.797210, 583.289614) rotate(-10.000000) translate(-133.797210, -583.289614)"/>
                <path d="M220.601 560.07L267.101 606.57" transform="translate(-38.000000, -3423.000000) translate(38.000000, 3413.000000) translate(243.850582, 583.320428) rotate(-20.000000) translate(-243.850582, -583.320428)"/>
                <path d="M330.658 560.092L377.158 606.592" transform="translate(-38.000000, -3423.000000) translate(38.000000, 3413.000000) translate(353.908494, 583.341506) rotate(-30.000000) translate(-353.908494, -583.341506)"/>
                <path d="M440.719 560.102L487.219 606.602" transform="translate(-38.000000, -3423.000000) translate(38.000000, 3413.000000) translate(463.969186, 583.352208) rotate(-40.000000) translate(-463.969186, -583.352208)"/>
                <path d="M550.75 560.104L597.25 606.604" transform="translate(-38.000000, -3423.000000) translate(38.000000, 3413.000000) translate(574.000000, 583.353553) rotate(-45.000000) translate(-574.000000, -583.353553)"/>
                <path d="M1322 10L1368.5 56.5" transform="translate(-38.000000, -3423.000000) translate(38.000000, 3413.000000) translate(1345.250000, 33.250000) scale(-1, 1) translate(-1345.250000, -33.250000)"/>
                <path d="M1211.953 10.04L1258.453 56.54" transform="translate(-38.000000, -3423.000000) translate(38.000000, 3413.000000) translate(1235.202790, 33.289614) scale(-1, 1) rotate(-10.000000) translate(-1235.202790, -33.289614)"/>
                <path d="M1101.899 10.07L1148.399 56.57" transform="translate(-38.000000, -3423.000000) translate(38.000000, 3413.000000) translate(1125.149418, 33.320428) scale(-1, 1) rotate(-20.000000) translate(-1125.149418, -33.320428)"/>
                <path d="M991.842 10.092L1038.342 56.592" transform="translate(-38.000000, -3423.000000) translate(38.000000, 3413.000000) translate(1015.091506, 33.341506) scale(-1, 1) rotate(-30.000000) translate(-1015.091506, -33.341506)"/>
                <path d="M881.781 10.102L928.281 56.602" transform="translate(-38.000000, -3423.000000) translate(38.000000, 3413.000000) translate(905.030814, 33.352208) scale(-1, 1) rotate(-40.000000) translate(-905.030814, -33.352208)"/>
                <path d="M771.75 10.104L818.25 56.604" transform="translate(-38.000000, -3423.000000) translate(38.000000, 3413.000000) translate(795.000000, 33.353553) scale(-1, 1) rotate(-45.000000) translate(-795.000000, -33.353553)"/>
                <path d="M1322 120L1368.5 166.5" transform="translate(-38.000000, -3423.000000) translate(38.000000, 3413.000000) translate(1345.250000, 143.250000) scale(-1, 1) translate(-1345.250000, -143.250000)"/>
                <path d="M1211.953 120.04L1258.453 166.54" transform="translate(-38.000000, -3423.000000) translate(38.000000, 3413.000000) translate(1235.202790, 143.289614) scale(-1, 1) rotate(-10.000000) translate(-1235.202790, -143.289614)"/>
                <path d="M1101.899 120.07L1148.399 166.57" transform="translate(-38.000000, -3423.000000) translate(38.000000, 3413.000000) translate(1125.149418, 143.320428) scale(-1, 1) rotate(-20.000000) translate(-1125.149418, -143.320428)"/>
                <path d="M991.842 120.092L1038.342 166.592" transform="translate(-38.000000, -3423.000000) translate(38.000000, 3413.000000) translate(1015.091506, 143.341506) scale(-1, 1) rotate(-30.000000) translate(-1015.091506, -143.341506)"/>
                <path d="M881.781 120.102L928.281 166.602" transform="translate(-38.000000, -3423.000000) translate(38.000000, 3413.000000) translate(905.030814, 143.352208) scale(-1, 1) rotate(-40.000000) translate(-905.030814, -143.352208)"/>
                <path d="M771.75 120.104L818.25 166.604" transform="translate(-38.000000, -3423.000000) translate(38.000000, 3413.000000) translate(795.000000, 143.353553) scale(-1, 1) rotate(-45.000000) translate(-795.000000, -143.353553)"/>
                <path d="M1322 230L1368.5 276.5" transform="translate(-38.000000, -3423.000000) translate(38.000000, 3413.000000) translate(1345.250000, 253.250000) scale(-1, 1) translate(-1345.250000, -253.250000)"/>
                <path d="M1211.953 230.04L1258.453 276.54" transform="translate(-38.000000, -3423.000000) translate(38.000000, 3413.000000) translate(1235.202790, 253.289614) scale(-1, 1) rotate(-10.000000) translate(-1235.202790, -253.289614)"/>
                <path d="M1101.899 230.07L1148.399 276.57" transform="translate(-38.000000, -3423.000000) translate(38.000000, 3413.000000) translate(1125.149418, 253.320428) scale(-1, 1) rotate(-20.000000) translate(-1125.149418, -253.320428)"/>
                <path d="M991.842 230.092L1038.342 276.592" transform="translate(-38.000000, -3423.000000) translate(38.000000, 3413.000000) translate(1015.091506, 253.341506) scale(-1, 1) rotate(-30.000000) translate(-1015.091506, -253.341506)"/>
                <path d="M881.781 230.102L928.281 276.602" transform="translate(-38.000000, -3423.000000) translate(38.000000, 3413.000000) translate(905.030814, 253.352208) scale(-1, 1) rotate(-40.000000) translate(-905.030814, -253.352208)"/>
                <path d="M771.75 230.104L818.25 276.604" transform="translate(-38.000000, -3423.000000) translate(38.000000, 3413.000000) translate(795.000000, 253.353553) scale(-1, 1) rotate(-45.000000) translate(-795.000000, -253.353553)"/>
                <path d="M1322 340L1368.5 386.5" transform="translate(-38.000000, -3423.000000) translate(38.000000, 3413.000000) translate(1345.250000, 363.250000) scale(-1, 1) translate(-1345.250000, -363.250000)"/>
                <path d="M1211.953 340.04L1258.453 386.54" transform="translate(-38.000000, -3423.000000) translate(38.000000, 3413.000000) translate(1235.202790, 363.289614) scale(-1, 1) rotate(-10.000000) translate(-1235.202790, -363.289614)"/>
                <path d="M1101.899 340.07L1148.399 386.57" transform="translate(-38.000000, -3423.000000) translate(38.000000, 3413.000000) translate(1125.149418, 363.320428) scale(-1, 1) rotate(-20.000000) translate(-1125.149418, -363.320428)"/>
                <path d="M991.842 340.092L1038.342 386.592" transform="translate(-38.000000, -3423.000000) translate(38.000000, 3413.000000) translate(1015.091506, 363.341506) scale(-1, 1) rotate(-30.000000) translate(-1015.091506, -363.341506)"/>
                <path d="M881.781 340.102L928.281 386.602" transform="translate(-38.000000, -3423.000000) translate(38.000000, 3413.000000) translate(905.030814, 363.352208) scale(-1, 1) rotate(-40.000000) translate(-905.030814, -363.352208)"/>
                <path d="M771.75 340.104L818.25 386.604" transform="translate(-38.000000, -3423.000000) translate(38.000000, 3413.000000) translate(795.000000, 363.353553) scale(-1, 1) rotate(-45.000000) translate(-795.000000, -363.353553)"/>
                <path d="M1322 450L1368.5 496.5" transform="translate(-38.000000, -3423.000000) translate(38.000000, 3413.000000) translate(1345.250000, 473.250000) scale(-1, 1) translate(-1345.250000, -473.250000)"/>
                <path d="M1211.953 450.04L1258.453 496.54" transform="translate(-38.000000, -3423.000000) translate(38.000000, 3413.000000) translate(1235.202790, 473.289614) scale(-1, 1) rotate(-10.000000) translate(-1235.202790, -473.289614)"/>
                <path d="M1101.899 450.07L1148.399 496.57" transform="translate(-38.000000, -3423.000000) translate(38.000000, 3413.000000) translate(1125.149418, 473.320428) scale(-1, 1) rotate(-20.000000) translate(-1125.149418, -473.320428)"/>
                <path d="M991.842 450.092L1038.342 496.592" transform="translate(-38.000000, -3423.000000) translate(38.000000, 3413.000000) translate(1015.091506, 473.341506) scale(-1, 1) rotate(-30.000000) translate(-1015.091506, -473.341506)"/>
                <path d="M881.781 450.102L928.281 496.602" transform="translate(-38.000000, -3423.000000) translate(38.000000, 3413.000000) translate(905.030814, 473.352208) scale(-1, 1) rotate(-40.000000) translate(-905.030814, -473.352208)"/>
                <path d="M771.75 450.104L818.25 496.604" transform="translate(-38.000000, -3423.000000) translate(38.000000, 3413.000000) translate(795.000000, 473.353553) scale(-1, 1) rotate(-45.000000) translate(-795.000000, -473.353553)"/>
                <path d="M1322 560L1368.5 606.5" transform="translate(-38.000000, -3423.000000) translate(38.000000, 3413.000000) translate(1345.250000, 583.250000) scale(-1, 1) translate(-1345.250000, -583.250000)"/>
                <path d="M1211.953 560.04L1258.453 606.54" transform="translate(-38.000000, -3423.000000) translate(38.000000, 3413.000000) translate(1235.202790, 583.289614) scale(-1, 1) rotate(-10.000000) translate(-1235.202790, -583.289614)"/>
                <path d="M1101.899 560.07L1148.399 606.57" transform="translate(-38.000000, -3423.000000) translate(38.000000, 3413.000000) translate(1125.149418, 583.320428) scale(-1, 1) rotate(-20.000000) translate(-1125.149418, -583.320428)"/>
                <path d="M991.842 560.092L1038.342 606.592" transform="translate(-38.000000, -3423.000000) translate(38.000000, 3413.000000) translate(1015.091506, 583.341506) scale(-1, 1) rotate(-30.000000) translate(-1015.091506, -583.341506)"/>
                <path d="M881.781 560.102L928.281 606.602" transform="translate(-38.000000, -3423.000000) translate(38.000000, 3413.000000) translate(905.030814, 583.352208) scale(-1, 1) rotate(-40.000000) translate(-905.030814, -583.352208)"/>
                <path d="M771.75 560.104L818.25 606.604" transform="translate(-38.000000, -3423.000000) translate(38.000000, 3413.000000) translate(795.000000, 583.353553) scale(-1, 1) rotate(-45.000000) translate(-795.000000, -583.353553)"/>
                <path d="M659.75 10.104L706.25 56.604" transform="translate(-38.000000, -3423.000000) translate(38.000000, 3413.000000) translate(683.000000, 33.353553) scale(-1, 1) rotate(-45.000000) translate(-683.000000, -33.353553)"/>
                <path d="M659.75 120.104L706.25 166.604" transform="translate(-38.000000, -3423.000000) translate(38.000000, 3413.000000) translate(683.000000, 143.353553) scale(-1, 1) rotate(-45.000000) translate(-683.000000, -143.353553)"/>
                <path d="M659.75 230.104L706.25 276.604" transform="translate(-38.000000, -3423.000000) translate(38.000000, 3413.000000) translate(683.000000, 253.353553) scale(-1, 1) rotate(-45.000000) translate(-683.000000, -253.353553)"/>
                <path d="M659.75 340.104L706.25 386.604" transform="translate(-38.000000, -3423.000000) translate(38.000000, 3413.000000) translate(683.000000, 363.353553) scale(-1, 1) rotate(-45.000000) translate(-683.000000, -363.353553)"/>
                <path d="M659.75 450.104L706.25 496.604" transform="translate(-38.000000, -3423.000000) translate(38.000000, 3413.000000) translate(683.000000, 473.353553) scale(-1, 1) rotate(-45.000000) translate(-683.000000, -473.353553)"/>
                <path d="M659.75 560.104L706.25 606.604" transform="translate(-38.000000, -3423.000000) translate(38.000000, 3413.000000) translate(683.000000, 583.353553) scale(-1, 1) rotate(-45.000000) translate(-683.000000, -583.353553)"/>
            </g>
        </g>
    </g>
</svg>
