<svg width="935px" height="652px" viewBox="0 0 935 652" version="1.1" xmlns="http://www.w3.org/2000/svg" xmlns:xlink="http://www.w3.org/1999/xlink">
    <!-- Generator: Sketch 64 (93537) - https://sketch.com -->
    <title>Group 23</title>
    <desc>Created with Sketch.</desc>
    <g id="Fonts" stroke="none" stroke-width="1" fill="none" fill-rule="evenodd">
        <g id="Group-23">
            <g id="Group-22" transform="translate(467.000000, 325.500000) scale(1, -1) translate(-467.000000, -325.500000) ">
                <path d="M329.846691,44 C426.581192,44 505,122.797884 505,220 L505,220 L317.002115,220 L316.99985,44.4662059 C321.242021,44.1571957 325.526087,44 329.846691,44 Z" id="Combined-Shape" fill="#EFEFEF"></path>
                <path d="M596.668627,487 C683.007901,487 752.999712,557.291294 752.999712,644 L752.999712,644 L585.002128,644 L585.000454,487.430704 C588.852704,487.145255 592.743775,487 596.668627,487 Z" id="Combined-Shape" fill="#EFEFEF" transform="translate(668.999856, 565.500000) scale(-1, -1) translate(-668.999856, -565.500000) "></path>
                <rect id="Rectangle" stroke="#EFEFEF" x="318" y="220" width="451" height="218"></rect>
                <rect id="Rectangle" fill="#EFEFEF" x="506" y="269" width="79" height="169"></rect>
                <rect id="Rectangle" fill="#EFEFEF" x="0" y="385" width="169" height="157"></rect>
                <rect id="Rectangle" fill="#EFEFEF" x="426" y="487" width="159" height="157"></rect>
                <rect id="Rectangle" fill="#EFEFEF" x="585" y="171" width="79" height="267"></rect>
                <rect id="Rectangle" fill="#EFEFEF" transform="translate(633.500000, 30.500000) scale(1, -1) translate(-633.500000, -30.500000) " x="603" y="0" width="61" height="61"></rect>
                <rect id="Rectangle" fill="#EFEFEF" transform="translate(704.500000, 234.500000) scale(1, -1) translate(-704.500000, -234.500000) " x="664" y="101" width="81" height="267"></rect>
                <rect id="Rectangle" fill="#FFFFFF" x="585" y="316" width="79" height="121"></rect>
                <rect id="Rectangle" stroke="#EFEFEF" fill="#FFFFFF" x="664" y="0" width="270" height="270" rx="66"></rect>
                <rect id="Rectangle" stroke="#EFEFEF" fill="#FFFFFF" x="318" y="383" width="108" height="108" rx="54"></rect>
                <rect id="Rectangle" stroke="#EFEFEF" fill="#FFFFFF" x="452" y="512" width="108" height="108" rx="54"></rect>
                <rect id="Rectangle" fill="#FFFFFF" x="425" y="558" width="160" height="93"></rect>
                <path d="M317,383 L317,491 L317,491 C287.728908,491 264,467.271092 264,438 L264,436 C264,406.728908 287.728908,383 317,383 Z" id="Combined-Shape" fill="#EFEFEF"></path>
                <path d="M263.999,383 L263.999,491 L263,491 C233.176624,491 209,466.823376 209,437 C209,407.176624 233.176624,383 263,383 L263.999,383 Z" id="Combined-Shape" fill="#EFEFEF"></path>
                <path d="M12.6686268,384 C99.0079009,384 168.999712,454.291294 168.999712,541 L168.999712,541 L1.00212798,541 L1.0004542,384.430704 C4.85270396,384.145255 8.7437746,384 12.6686268,384 Z" id="Combined-Shape" fill="#FFFFFF" transform="translate(84.999856, 462.500000) scale(-1, -1) translate(-84.999856, -462.500000) "></path>
            </g>
        </g>
    </g>
</svg>